<mxfile host="Electron" modified="2024-07-13T08:45:46.988Z" agent="Mozilla/5.0 (Macintosh; Intel Mac OS X 10_15_7) AppleWebKit/537.36 (KHTML, like Gecko) draw.io/24.6.4 Chrome/124.0.6367.207 Electron/30.0.6 Safari/537.36" etag="rLUz9fqsmLuUuiF8cO7e" version="24.6.4" type="device">
  <diagram name="페이지-1" id="wBKkpxGlsAfFE-Tc2g2A">
    <mxGraphModel dx="1114" dy="894" grid="1" gridSize="10" guides="1" tooltips="1" connect="1" arrows="1" fold="1" page="1" pageScale="1" pageWidth="827" pageHeight="1169" math="0" shadow="0">
      <root>
        <mxCell id="0" />
        <mxCell id="1" parent="0" />
        <mxCell id="Zd3Y61BPn3BzByAiaa4u-1" value="domain" style="rounded=1;whiteSpace=wrap;html=1;verticalAlign=top;fontSize=14;fontStyle=1" vertex="1" parent="1">
          <mxGeometry x="90" y="120" width="210" height="200" as="geometry" />
        </mxCell>
        <mxCell id="Zd3Y61BPn3BzByAiaa4u-2" value="infra" style="rounded=1;whiteSpace=wrap;html=1;fontSize=14;fontStyle=1;verticalAlign=top;" vertex="1" parent="1">
          <mxGeometry x="370" y="200" width="260" height="130" as="geometry" />
        </mxCell>
        <mxCell id="Zd3Y61BPn3BzByAiaa4u-4" value="Order" style="rounded=0;whiteSpace=wrap;html=1;" vertex="1" parent="1">
          <mxGeometry x="160" y="170" width="70" height="40" as="geometry" />
        </mxCell>
        <mxCell id="Zd3Y61BPn3BzByAiaa4u-5" value="&amp;lt;&amp;lt;interface&amp;gt;&amp;gt;&lt;div&gt;DiscountCalculationService&lt;/div&gt;" style="rounded=0;whiteSpace=wrap;html=1;" vertex="1" parent="1">
          <mxGeometry x="110" y="240" width="170" height="60" as="geometry" />
        </mxCell>
        <mxCell id="Zd3Y61BPn3BzByAiaa4u-7" style="edgeStyle=orthogonalEdgeStyle;rounded=0;orthogonalLoop=1;jettySize=auto;html=1;entryX=1;entryY=0.5;entryDx=0;entryDy=0;dashed=1;endArrow=block;endFill=0;" edge="1" parent="1" source="Zd3Y61BPn3BzByAiaa4u-6" target="Zd3Y61BPn3BzByAiaa4u-5">
          <mxGeometry relative="1" as="geometry" />
        </mxCell>
        <mxCell id="Zd3Y61BPn3BzByAiaa4u-6" value="RuleBased&lt;div&gt;DiscountCalculationService&lt;/div&gt;" style="rounded=0;whiteSpace=wrap;html=1;" vertex="1" parent="1">
          <mxGeometry x="400" y="240" width="200" height="60" as="geometry" />
        </mxCell>
      </root>
    </mxGraphModel>
  </diagram>
</mxfile>
